<mxfile host="app.diagrams.net" agent="Mozilla/5.0 (Windows NT 10.0; Win64; x64) AppleWebKit/537.36 (KHTML, like Gecko) Chrome/132.0.0.0 Safari/537.36" version="24.8.1">
  <diagram name="Page-1" id="WQnhvw6LS15hU7V8iBuS">
    <mxGraphModel dx="1843" dy="746" grid="1" gridSize="10" guides="1" tooltips="1" connect="1" arrows="1" fold="1" page="1" pageScale="1" pageWidth="850" pageHeight="1100" math="0" shadow="0">
      <root>
        <mxCell id="0" />
        <mxCell id="1" parent="0" />
        <mxCell id="HN1IAaa8pDN_wy_SzsMl-5" value="User&amp;nbsp;" style="whiteSpace=wrap;html=1;align=center;" vertex="1" parent="1">
          <mxGeometry x="1170" y="513" width="100" height="40" as="geometry" />
        </mxCell>
        <mxCell id="HN1IAaa8pDN_wy_SzsMl-7" value="Items" style="whiteSpace=wrap;html=1;align=center;" vertex="1" parent="1">
          <mxGeometry x="465" y="508" width="100" height="40" as="geometry" />
        </mxCell>
        <mxCell id="5CA7E_zaCp3JzvPiPu1T-2" value="&lt;u&gt;ID&lt;/u&gt;" style="ellipse;whiteSpace=wrap;html=1;align=center;" vertex="1" parent="1">
          <mxGeometry x="1330" y="463" width="100" height="40" as="geometry" />
        </mxCell>
        <mxCell id="HN1IAaa8pDN_wy_SzsMl-8" value="Name" style="ellipse;whiteSpace=wrap;html=1;align=center;" vertex="1" parent="1">
          <mxGeometry x="465" y="458" width="50" height="30" as="geometry" />
        </mxCell>
        <mxCell id="5CA7E_zaCp3JzvPiPu1T-3" value="Category" style="ellipse;whiteSpace=wrap;html=1;align=center;" vertex="1" parent="1">
          <mxGeometry x="525" y="448" width="60" height="30" as="geometry" />
        </mxCell>
        <mxCell id="HN1IAaa8pDN_wy_SzsMl-9" value="Item_id" style="ellipse;whiteSpace=wrap;html=1;align=center;fontStyle=4;" vertex="1" parent="1">
          <mxGeometry x="385" y="488" width="70" height="30" as="geometry" />
        </mxCell>
        <mxCell id="HN1IAaa8pDN_wy_SzsMl-10" value="Wishing List" style="shape=rhombus;perimeter=rhombusPerimeter;whiteSpace=wrap;html=1;align=center;" vertex="1" parent="1">
          <mxGeometry x="742" y="488" width="120" height="60" as="geometry" />
        </mxCell>
        <mxCell id="5CA7E_zaCp3JzvPiPu1T-4" value="USER_NAME" style="ellipse;whiteSpace=wrap;html=1;align=center;" vertex="1" parent="1">
          <mxGeometry x="1240" y="433" width="100" height="40" as="geometry" />
        </mxCell>
        <mxCell id="5CA7E_zaCp3JzvPiPu1T-5" value="USER_LOGIN" style="ellipse;whiteSpace=wrap;html=1;align=center;" vertex="1" parent="1">
          <mxGeometry x="1150" y="413" width="100" height="40" as="geometry" />
        </mxCell>
        <mxCell id="fvRpB46bM4rtNkM9O3gG-16" value="USER_EMAIL" style="ellipse;whiteSpace=wrap;html=1;align=center;" vertex="1" parent="1">
          <mxGeometry x="1050" y="438" width="100" height="40" as="geometry" />
        </mxCell>
        <mxCell id="oJgULsElm48sNbNnmMFv-10" value="GENDER" style="ellipse;whiteSpace=wrap;html=1;align=center;" vertex="1" parent="1">
          <mxGeometry x="1240" y="613" width="100" height="40" as="geometry" />
        </mxCell>
        <mxCell id="oJgULsElm48sNbNnmMFv-11" value="DOB" style="ellipse;whiteSpace=wrap;html=1;align=center;" vertex="1" parent="1">
          <mxGeometry x="1120" y="613" width="100" height="40" as="geometry" />
        </mxCell>
        <mxCell id="oJgULsElm48sNbNnmMFv-12" value="PASSWORD" style="ellipse;whiteSpace=wrap;html=1;align=center;" vertex="1" parent="1">
          <mxGeometry x="1190" y="663" width="100" height="40" as="geometry" />
        </mxCell>
        <mxCell id="fvRpB46bM4rtNkM9O3gG-17" value="Price" style="ellipse;whiteSpace=wrap;html=1;align=center;" vertex="1" parent="1">
          <mxGeometry x="370" y="548" width="70" height="30" as="geometry" />
        </mxCell>
        <mxCell id="oJgULsElm48sNbNnmMFv-13" value="TELEPHONE" style="ellipse;whiteSpace=wrap;html=1;align=center;" vertex="1" parent="1">
          <mxGeometry x="1350" y="523" width="100" height="40" as="geometry" />
        </mxCell>
        <mxCell id="fvRpB46bM4rtNkM9O3gG-18" value="Status" style="ellipse;whiteSpace=wrap;html=1;align=center;" vertex="1" parent="1">
          <mxGeometry x="440" y="588" width="80" height="20" as="geometry" />
        </mxCell>
        <mxCell id="oJgULsElm48sNbNnmMFv-14" value="IS_DELETED" style="ellipse;whiteSpace=wrap;html=1;align=center;" vertex="1" parent="1">
          <mxGeometry x="1330" y="583" width="100" height="40" as="geometry" />
        </mxCell>
        <mxCell id="HN1IAaa8pDN_wy_SzsMl-11" value="" style="endArrow=none;html=1;rounded=0;exitX=1;exitY=0;exitDx=0;exitDy=0;entryX=0.5;entryY=1;entryDx=0;entryDy=0;" edge="1" parent="1" source="HN1IAaa8pDN_wy_SzsMl-5" target="5CA7E_zaCp3JzvPiPu1T-4">
          <mxGeometry relative="1" as="geometry">
            <mxPoint x="1170" y="373" as="sourcePoint" />
            <mxPoint x="1330" y="373" as="targetPoint" />
          </mxGeometry>
        </mxCell>
        <mxCell id="oJgULsElm48sNbNnmMFv-18" value="" style="endArrow=none;html=1;rounded=0;entryX=0;entryY=0.5;entryDx=0;entryDy=0;" edge="1" parent="1" source="HN1IAaa8pDN_wy_SzsMl-5" target="oJgULsElm48sNbNnmMFv-13">
          <mxGeometry relative="1" as="geometry">
            <mxPoint x="1260" y="553" as="sourcePoint" />
            <mxPoint x="1290" y="483" as="targetPoint" />
          </mxGeometry>
        </mxCell>
        <mxCell id="oJgULsElm48sNbNnmMFv-19" value="" style="endArrow=none;html=1;rounded=0;exitX=0.61;exitY=0.982;exitDx=0;exitDy=0;entryX=0.118;entryY=0.288;entryDx=0;entryDy=0;entryPerimeter=0;exitPerimeter=0;" edge="1" parent="1" source="HN1IAaa8pDN_wy_SzsMl-5" target="oJgULsElm48sNbNnmMFv-14">
          <mxGeometry relative="1" as="geometry">
            <mxPoint x="1290" y="533" as="sourcePoint" />
            <mxPoint x="1300" y="493" as="targetPoint" />
          </mxGeometry>
        </mxCell>
        <mxCell id="oJgULsElm48sNbNnmMFv-20" value="" style="endArrow=none;html=1;rounded=0;exitX=1;exitY=0.5;exitDx=0;exitDy=0;" edge="1" parent="1" source="HN1IAaa8pDN_wy_SzsMl-5" target="5CA7E_zaCp3JzvPiPu1T-2">
          <mxGeometry relative="1" as="geometry">
            <mxPoint x="1300" y="543" as="sourcePoint" />
            <mxPoint x="1310" y="503" as="targetPoint" />
          </mxGeometry>
        </mxCell>
        <mxCell id="HN1IAaa8pDN_wy_SzsMl-12" value="Date" style="ellipse;whiteSpace=wrap;html=1;align=center;" vertex="1" parent="1">
          <mxGeometry x="672" y="438" width="100" height="40" as="geometry" />
        </mxCell>
        <mxCell id="HN1IAaa8pDN_wy_SzsMl-13" value="Status" style="ellipse;whiteSpace=wrap;html=1;align=center;" vertex="1" parent="1">
          <mxGeometry x="790" y="578" width="100" height="40" as="geometry" />
        </mxCell>
        <mxCell id="oJgULsElm48sNbNnmMFv-21" value="" style="endArrow=none;html=1;rounded=0;exitX=0.5;exitY=0;exitDx=0;exitDy=0;entryX=0.5;entryY=1;entryDx=0;entryDy=0;" edge="1" parent="1" source="oJgULsElm48sNbNnmMFv-10" target="HN1IAaa8pDN_wy_SzsMl-5">
          <mxGeometry relative="1" as="geometry">
            <mxPoint x="1310" y="553" as="sourcePoint" />
            <mxPoint x="1320" y="513" as="targetPoint" />
          </mxGeometry>
        </mxCell>
        <mxCell id="oJgULsElm48sNbNnmMFv-22" value="" style="endArrow=none;html=1;rounded=0;exitX=0.5;exitY=0;exitDx=0;exitDy=0;entryX=0.58;entryY=1.002;entryDx=0;entryDy=0;entryPerimeter=0;" edge="1" parent="1" source="HN1IAaa8pDN_wy_SzsMl-5" target="5CA7E_zaCp3JzvPiPu1T-5">
          <mxGeometry relative="1" as="geometry">
            <mxPoint x="1320" y="563" as="sourcePoint" />
            <mxPoint x="1330" y="523" as="targetPoint" />
          </mxGeometry>
        </mxCell>
        <mxCell id="oJgULsElm48sNbNnmMFv-23" value="" style="endArrow=none;html=1;rounded=0;exitX=0;exitY=0;exitDx=0;exitDy=0;" edge="1" parent="1" source="HN1IAaa8pDN_wy_SzsMl-5" target="fvRpB46bM4rtNkM9O3gG-16">
          <mxGeometry relative="1" as="geometry">
            <mxPoint x="1330" y="573" as="sourcePoint" />
            <mxPoint x="1080" y="423" as="targetPoint" />
          </mxGeometry>
        </mxCell>
        <mxCell id="oJgULsElm48sNbNnmMFv-24" value="" style="endArrow=none;html=1;rounded=0;exitX=0.5;exitY=0;exitDx=0;exitDy=0;entryX=0.25;entryY=1;entryDx=0;entryDy=0;" edge="1" parent="1" source="oJgULsElm48sNbNnmMFv-11" target="HN1IAaa8pDN_wy_SzsMl-5">
          <mxGeometry relative="1" as="geometry">
            <mxPoint x="1340" y="583" as="sourcePoint" />
            <mxPoint x="1350" y="543" as="targetPoint" />
          </mxGeometry>
        </mxCell>
        <mxCell id="oJgULsElm48sNbNnmMFv-25" value="" style="endArrow=none;html=1;rounded=0;exitX=0;exitY=0;exitDx=0;exitDy=0;entryX=0.38;entryY=1.03;entryDx=0;entryDy=0;entryPerimeter=0;" edge="1" parent="1" source="oJgULsElm48sNbNnmMFv-10" target="HN1IAaa8pDN_wy_SzsMl-5">
          <mxGeometry relative="1" as="geometry">
            <mxPoint x="1350" y="593" as="sourcePoint" />
            <mxPoint x="1210" y="563" as="targetPoint" />
          </mxGeometry>
        </mxCell>
        <mxCell id="oJgULsElm48sNbNnmMFv-26" value="" style="endArrow=none;html=1;rounded=0;exitX=0.5;exitY=0;exitDx=0;exitDy=0;entryX=0.335;entryY=1.014;entryDx=0;entryDy=0;entryPerimeter=0;" edge="1" parent="1" source="oJgULsElm48sNbNnmMFv-12" target="HN1IAaa8pDN_wy_SzsMl-5">
          <mxGeometry relative="1" as="geometry">
            <mxPoint x="1360" y="603" as="sourcePoint" />
            <mxPoint x="1370" y="563" as="targetPoint" />
          </mxGeometry>
        </mxCell>
        <mxCell id="fvRpB46bM4rtNkM9O3gG-20" value="" style="endArrow=none;html=1;rounded=0;entryX=0;entryY=1;entryDx=0;entryDy=0;" edge="1" parent="1" source="fvRpB46bM4rtNkM9O3gG-17" target="HN1IAaa8pDN_wy_SzsMl-7">
          <mxGeometry relative="1" as="geometry">
            <mxPoint x="735" y="358" as="sourcePoint" />
            <mxPoint x="695" y="298" as="targetPoint" />
          </mxGeometry>
        </mxCell>
        <mxCell id="oJgULsElm48sNbNnmMFv-31" value="" style="endArrow=none;html=1;rounded=0;entryX=0.5;entryY=1;entryDx=0;entryDy=0;" edge="1" parent="1">
          <mxGeometry relative="1" as="geometry">
            <mxPoint x="535" y="508" as="sourcePoint" />
            <mxPoint x="565" y="478" as="targetPoint" />
          </mxGeometry>
        </mxCell>
        <mxCell id="oJgULsElm48sNbNnmMFv-32" value="" style="endArrow=none;html=1;rounded=0;exitX=0;exitY=0;exitDx=0;exitDy=0;" edge="1" parent="1" source="HN1IAaa8pDN_wy_SzsMl-10" target="HN1IAaa8pDN_wy_SzsMl-12">
          <mxGeometry relative="1" as="geometry">
            <mxPoint x="602" y="548" as="sourcePoint" />
            <mxPoint x="576" y="503" as="targetPoint" />
          </mxGeometry>
        </mxCell>
        <mxCell id="oJgULsElm48sNbNnmMFv-35" value="" style="endArrow=none;html=1;rounded=0;entryX=0.5;entryY=1;entryDx=0;entryDy=0;exitX=0.5;exitY=0;exitDx=0;exitDy=0;" edge="1" parent="1" source="HN1IAaa8pDN_wy_SzsMl-13" target="HN1IAaa8pDN_wy_SzsMl-10">
          <mxGeometry relative="1" as="geometry">
            <mxPoint x="484" y="609" as="sourcePoint" />
            <mxPoint x="510" y="568" as="targetPoint" />
          </mxGeometry>
        </mxCell>
        <mxCell id="fvRpB46bM4rtNkM9O3gG-23" value="" style="endArrow=none;html=1;rounded=0;entryX=0;entryY=0.75;entryDx=0;entryDy=0;exitX=0.5;exitY=0;exitDx=0;exitDy=0;" edge="1" parent="1" source="HN1IAaa8pDN_wy_SzsMl-17" target="HN1IAaa8pDN_wy_SzsMl-5">
          <mxGeometry relative="1" as="geometry">
            <mxPoint x="909.9987768562274" y="521.6547752073488" as="sourcePoint" />
            <mxPoint x="946.42" y="512.9984615384615" as="targetPoint" />
          </mxGeometry>
        </mxCell>
        <mxCell id="oJgULsElm48sNbNnmMFv-36" value="" style="endArrow=none;html=1;rounded=0;exitX=0.5;exitY=0;exitDx=0;exitDy=0;" edge="1" parent="1" source="HN1IAaa8pDN_wy_SzsMl-33" target="HN1IAaa8pDN_wy_SzsMl-10">
          <mxGeometry relative="1" as="geometry">
            <mxPoint x="747.2006133129164" y="578.7962437509284" as="sourcePoint" />
            <mxPoint x="520" y="578" as="targetPoint" />
          </mxGeometry>
        </mxCell>
        <mxCell id="oJgULsElm48sNbNnmMFv-37" value="" style="endArrow=none;html=1;rounded=0;entryX=0;entryY=0.5;entryDx=0;entryDy=0;exitX=1;exitY=0.5;exitDx=0;exitDy=0;" edge="1" parent="1" source="HN1IAaa8pDN_wy_SzsMl-7" target="HN1IAaa8pDN_wy_SzsMl-10">
          <mxGeometry relative="1" as="geometry">
            <mxPoint x="444" y="629" as="sourcePoint" />
            <mxPoint x="470" y="588" as="targetPoint" />
          </mxGeometry>
        </mxCell>
        <mxCell id="oJgULsElm48sNbNnmMFv-30" value="" style="endArrow=none;html=1;rounded=0;exitX=0.5;exitY=0;exitDx=0;exitDy=0;entryX=0.737;entryY=0.872;entryDx=0;entryDy=0;entryPerimeter=0;" edge="1" parent="1" source="HN1IAaa8pDN_wy_SzsMl-7" target="HN1IAaa8pDN_wy_SzsMl-8">
          <mxGeometry relative="1" as="geometry">
            <mxPoint x="1185" y="598" as="sourcePoint" />
            <mxPoint x="1195" y="558" as="targetPoint" />
          </mxGeometry>
        </mxCell>
        <mxCell id="HN1IAaa8pDN_wy_SzsMl-17" value="Friend" style="shape=rhombus;perimeter=rhombusPerimeter;whiteSpace=wrap;html=1;align=center;" vertex="1" parent="1">
          <mxGeometry x="920" y="613" width="120" height="60" as="geometry" />
        </mxCell>
        <mxCell id="HN1IAaa8pDN_wy_SzsMl-18" value="" style="endArrow=none;html=1;rounded=0;exitX=1;exitY=0.5;exitDx=0;exitDy=0;entryX=0;entryY=1;entryDx=0;entryDy=0;" edge="1" parent="1" source="HN1IAaa8pDN_wy_SzsMl-17" target="HN1IAaa8pDN_wy_SzsMl-5">
          <mxGeometry relative="1" as="geometry">
            <mxPoint x="880" y="543" as="sourcePoint" />
            <mxPoint x="1040" y="513" as="targetPoint" />
          </mxGeometry>
        </mxCell>
        <mxCell id="oJgULsElm48sNbNnmMFv-28" value="" style="endArrow=none;html=1;rounded=0;exitX=0;exitY=0.5;exitDx=0;exitDy=0;entryX=1;entryY=0.5;entryDx=0;entryDy=0;" edge="1" parent="1" source="HN1IAaa8pDN_wy_SzsMl-5" target="HN1IAaa8pDN_wy_SzsMl-10">
          <mxGeometry relative="1" as="geometry">
            <mxPoint x="950" y="523" as="sourcePoint" />
            <mxPoint x="960" y="483" as="targetPoint" />
          </mxGeometry>
        </mxCell>
        <mxCell id="HN1IAaa8pDN_wy_SzsMl-19" value="Date" style="ellipse;whiteSpace=wrap;html=1;align=center;" vertex="1" parent="1">
          <mxGeometry x="960" y="723" width="100" height="40" as="geometry" />
        </mxCell>
        <mxCell id="HN1IAaa8pDN_wy_SzsMl-23" value="" style="endArrow=none;html=1;rounded=0;entryX=1;entryY=1;entryDx=0;entryDy=0;exitX=0.5;exitY=0;exitDx=0;exitDy=0;" edge="1" parent="1" source="HN1IAaa8pDN_wy_SzsMl-19" target="HN1IAaa8pDN_wy_SzsMl-17">
          <mxGeometry relative="1" as="geometry">
            <mxPoint x="840" y="698" as="sourcePoint" />
            <mxPoint x="840" y="648" as="targetPoint" />
          </mxGeometry>
        </mxCell>
        <mxCell id="HN1IAaa8pDN_wy_SzsMl-24" value="Status" style="ellipse;whiteSpace=wrap;html=1;align=center;" vertex="1" parent="1">
          <mxGeometry x="850" y="723" width="100" height="40" as="geometry" />
        </mxCell>
        <mxCell id="HN1IAaa8pDN_wy_SzsMl-25" value="" style="endArrow=none;html=1;rounded=0;entryX=0;entryY=1;entryDx=0;entryDy=0;exitX=0.5;exitY=0;exitDx=0;exitDy=0;" edge="1" parent="1" source="HN1IAaa8pDN_wy_SzsMl-24" target="HN1IAaa8pDN_wy_SzsMl-17">
          <mxGeometry relative="1" as="geometry">
            <mxPoint x="840" y="688" as="sourcePoint" />
            <mxPoint x="910" y="678" as="targetPoint" />
          </mxGeometry>
        </mxCell>
        <mxCell id="HN1IAaa8pDN_wy_SzsMl-26" value="" style="endArrow=none;html=1;rounded=0;exitX=1;exitY=1;exitDx=0;exitDy=0;entryX=0;entryY=0.5;entryDx=0;entryDy=0;" edge="1" parent="1" source="HN1IAaa8pDN_wy_SzsMl-9" target="HN1IAaa8pDN_wy_SzsMl-7">
          <mxGeometry relative="1" as="geometry">
            <mxPoint x="752" y="578" as="sourcePoint" />
            <mxPoint x="912" y="578" as="targetPoint" />
          </mxGeometry>
        </mxCell>
        <mxCell id="HN1IAaa8pDN_wy_SzsMl-28" value="" style="endArrow=none;html=1;rounded=0;exitX=0.25;exitY=1;exitDx=0;exitDy=0;entryX=0.5;entryY=0;entryDx=0;entryDy=0;" edge="1" parent="1" source="HN1IAaa8pDN_wy_SzsMl-7" target="fvRpB46bM4rtNkM9O3gG-18">
          <mxGeometry relative="1" as="geometry">
            <mxPoint x="752" y="578" as="sourcePoint" />
            <mxPoint x="912" y="578" as="targetPoint" />
          </mxGeometry>
        </mxCell>
        <mxCell id="HN1IAaa8pDN_wy_SzsMl-31" value="CONTRIBUTEE_ID" style="ellipse;shape=doubleEllipse;margin=3;whiteSpace=wrap;html=1;align=center;" vertex="1" parent="1">
          <mxGeometry x="720" y="378" width="130" height="40" as="geometry" />
        </mxCell>
        <mxCell id="HN1IAaa8pDN_wy_SzsMl-32" value="" style="endArrow=none;html=1;rounded=0;exitX=0.5;exitY=1;exitDx=0;exitDy=0;entryX=0.5;entryY=0;entryDx=0;entryDy=0;" edge="1" parent="1" source="HN1IAaa8pDN_wy_SzsMl-31" target="HN1IAaa8pDN_wy_SzsMl-10">
          <mxGeometry relative="1" as="geometry">
            <mxPoint x="700" y="683" as="sourcePoint" />
            <mxPoint x="860" y="683" as="targetPoint" />
          </mxGeometry>
        </mxCell>
        <mxCell id="HN1IAaa8pDN_wy_SzsMl-33" value="Paid Amount" style="ellipse;whiteSpace=wrap;html=1;align=center;dashed=1;" vertex="1" parent="1">
          <mxGeometry x="660" y="578" width="100" height="40" as="geometry" />
        </mxCell>
        <mxCell id="oJgULsElm48sNbNnmMFv-43" value="" style="endArrow=none;html=1;rounded=0;exitX=0.254;exitY=0.935;exitDx=0;exitDy=0;entryX=0.672;entryY=0.155;entryDx=0;entryDy=0;entryPerimeter=0;exitPerimeter=0;" edge="1" parent="1" source="oJgULsElm48sNbNnmMFv-44" target="HN1IAaa8pDN_wy_SzsMl-10">
          <mxGeometry relative="1" as="geometry">
            <mxPoint x="904.814227998402" y="472.2096386929529" as="sourcePoint" />
            <mxPoint x="812" y="498" as="targetPoint" />
          </mxGeometry>
        </mxCell>
        <mxCell id="oJgULsElm48sNbNnmMFv-44" value="CONTRIBUTOR _AMOUNT" style="ellipse;shape=doubleEllipse;margin=3;whiteSpace=wrap;html=1;align=center;" vertex="1" parent="1">
          <mxGeometry x="832" y="338" width="160" height="40" as="geometry" />
        </mxCell>
      </root>
    </mxGraphModel>
  </diagram>
</mxfile>
